<?xml version="1.0" encoding="UTF-8"?>
<svg xmlns="http://www.w3.org/2000/svg" version="1.1" xmlns:xlink="http://www.w3.org/1999/xlink" viewBox="0 0 628.1 628.1">
  <!-- Generator: Adobe Illustrator 29.5.1, SVG Export Plug-In . SVG Version: 2.1.0 Build 141)  -->
  <defs>
    <style>
      .st0 {
        opacity: .3;
      }

      .st1 {
        fill: url(#linear-gradient2);
      }

      .st2 {
        stroke-width: 2.5px;
      }

      .st2, .st3, .st4, .st5, .st6, .st7, .st8, .st9, .st10, .st11, .st12 {
        fill: none;
      }

      .st2, .st3, .st4, .st5, .st6, .st7, .st9, .st10, .st11, .st12 {
        stroke-miterlimit: 10;
      }

      .st2, .st3, .st4, .st5, .st6, .st7, .st9, .st11, .st12 {
        stroke: #231f20;
      }

      .st13 {
        fill: #ececed;
      }

      .st3 {
        stroke-width: 2.7px;
      }

      .st4 {
        stroke-width: 2.2px;
      }

      .st5 {
        stroke-width: 2.3px;
      }

      .st14 {
        fill: #f1f2f2;
      }

      .st6 {
        stroke-width: 2.2px;
      }

      .st7 {
        stroke-width: 2.2px;
      }

      .st15, .st16 {
        fill: #fff;
      }

      .st17 {
        fill: url(#linear-gradient1);
      }

      .st18 {
        fill: url(#radial-gradient);
      }

      .st19 {
        mix-blend-mode: multiply;
        opacity: .2;
      }

      .st20 {
        fill: url(#radial-gradient1);
      }

      .st21 {
        clip-path: url(#clippath-1);
      }

      .st22 {
        isolation: isolate;
      }

      .st16 {
        opacity: .3;
      }

      .st23 {
        fill: #f7f7f7;
      }

      .st24 {
        fill: url(#linear-gradient4);
      }

      .st25 {
        fill: #e6e7e8;
      }

      .st9 {
        stroke-width: 1.7px;
      }

      .st26 {
        fill: url(#linear-gradient5);
      }

      .st27 {
        fill: url(#linear-gradient3);
      }

      .st28 {
        display: none;
      }

      .st29 {
        fill: #010101;
      }

      .st10 {
        stroke: url(#radial-gradient2);
        stroke-width: 1.3px;
      }

      .st11 {
        stroke-width: 2.6px;
      }

      .st30 {
        fill: url(#linear-gradient);
      }

      .st31 {
        clip-path: url(#clippath);
      }

      .st12 {
        stroke-width: 2.7px;
      }
    </style>
    <clipPath id="clippath">
      <path class="st8" d="M976.7-153.1c-60.2,0-116.8-23.4-159.4-66s-66-99.2-66-159.4,23.4-116.8,66-159.4,99.2-66,159.4-66,116.8,23.4,159.4,66,66,99.2,66,159.4-23.4,116.8-66,159.4-99.2,66-159.4,66Z"/>
    </clipPath>
    <linearGradient id="linear-gradient" x1="733.3" y1="-378.5" x2="1220.1" y2="-378.5" gradientUnits="userSpaceOnUse">
      <stop offset="0" stop-color="#9f1d20"/>
      <stop offset="1" stop-color="#ee332e"/>
    </linearGradient>
    <clipPath id="clippath-1">
      <rect class="st8" x="733.5" y="-621.8" width="486.5" height="486.5" rx="175.6" ry="175.6"/>
    </clipPath>
    <linearGradient id="linear-gradient1" x1="918.5" y1="-332.4" x2="1075.1" y2="-253.2" gradientUnits="userSpaceOnUse">
      <stop offset="0" stop-color="#351517"/>
      <stop offset="0" stop-color="#571719"/>
      <stop offset=".1" stop-color="#841b1d"/>
      <stop offset=".2" stop-color="#a91d20"/>
      <stop offset=".2" stop-color="#c62022"/>
      <stop offset=".3" stop-color="#db2124"/>
      <stop offset=".4" stop-color="#e72225"/>
      <stop offset=".4" stop-color="#ec2326"/>
      <stop offset=".7" stop-color="#a31e21"/>
      <stop offset="1" stop-color="#351416"/>
    </linearGradient>
    <linearGradient id="linear-gradient2" x1="884.7" y1="-231.4" x2="1034.4" y2="-231.4" gradientUnits="userSpaceOnUse">
      <stop offset=".2" stop-color="#79151b"/>
      <stop offset=".4" stop-color="#ab2123"/>
      <stop offset=".5" stop-color="#db2e2a"/>
      <stop offset=".6" stop-color="#ee332e"/>
      <stop offset="1" stop-color="#561015"/>
    </linearGradient>
    <radialGradient id="radial-gradient" cx="952.3" cy="-232.9" fx="952.3" fy="-232.9" r="52.9" gradientUnits="userSpaceOnUse">
      <stop offset="0" stop-color="#ee332e"/>
      <stop offset=".1" stop-color="#e8312d"/>
      <stop offset=".3" stop-color="#d92e2a"/>
      <stop offset=".5" stop-color="#c02826"/>
      <stop offset=".7" stop-color="#9d2020"/>
      <stop offset=".9" stop-color="#701619"/>
      <stop offset="1" stop-color="#561015"/>
    </radialGradient>
    <radialGradient id="radial-gradient1" cx="960.3" cy="-423.8" fx="960.3" fy="-423.8" r="160.7" gradientTransform="translate(542.5 485.3) rotate(-49) scale(1 .7)" gradientUnits="userSpaceOnUse">
      <stop offset="0" stop-color="#ee332e"/>
      <stop offset=".2" stop-color="#db2e2b"/>
      <stop offset=".2" stop-color="#db2e2b"/>
      <stop offset=".5" stop-color="#c32727"/>
      <stop offset=".8" stop-color="#a31e21"/>
      <stop offset=".9" stop-color="#79151b"/>
      <stop offset="1" stop-color="#351416"/>
    </radialGradient>
    <linearGradient id="linear-gradient3" x1="888.9" y1="-311" x2="1056.7" y2="-436.9" xlink:href="#linear-gradient2"/>
    <radialGradient id="radial-gradient2" cx="964.5" cy="-368" fx="964.5" fy="-368" r="93.9" gradientUnits="userSpaceOnUse">
      <stop offset=".3" stop-color="#ee332e"/>
      <stop offset="1" stop-color="#561015"/>
    </radialGradient>
    <linearGradient id="linear-gradient4" x1="77.5" y1="-272.6" x2="524.2" y2="-478.1" xlink:href="#linear-gradient"/>
    <linearGradient id="linear-gradient5" x1="78.9" y1="422.2" x2="1473.7" y2="-219.4" xlink:href="#linear-gradient1"/>
  </defs>
  <g class="st22">
    <g id="Layer_1">
      <line class="st11" x1="1558.2" y1="-232.1" x2="1558.2" y2="-232.1"/>
      <image width="148" height="198" transform="translate(-709.7 -708.5) scale(3.3)" xlink:href="Ticket Logo-1.png"/>
      <path class="st12" d="M-664.2-576.2h144c9,0,16.4,7.3,16.4,16.4V-67.5c0,5.5-4.5,10-10,10h-156.7c-5.5,0-10-4.5-10-10v-492.4c0-9,7.3-16.4,16.4-16.4Z" transform="translate(-10.1 -651.9) rotate(-58.1)"/>
      <path class="st5" d="M-630.7-582.3h141.1c5.5,0,10,4.5,10,10V-174.1h-161.1v-398.2c0-5.5,4.5-10,10-10Z" transform="translate(-569.5 297.7) rotate(56.8)"/>
      <line class="st2" x1="-263.2" y1="-466.3" x2="-680.1" y2="-193.1"/>
      <line class="st3" x1="-621.9" y1="-512" x2="-621.9" y2="7"/>
      <circle class="st7" cx="-390.2" cy="-489.6" r="30.5"/>
      <circle class="st7" cx="-368" cy="-182.3" r="30.5"/>
      <path class="st9" d="M-390.3-260.1c-3.5,0-6.4-2.8-6.4-6.4s2.8-6.4,6.4-6.4,6.4,2.8,6.4,6.4-2.8,6.4-6.4,6.4Z"/>
      <path class="st9" d="M-404-238.4c-3.5,0-6.4-2.8-6.4-6.4s2.8-6.4,6.4-6.4,6.4,2.8,6.4,6.4-2.8,6.4-6.4,6.4Z"/>
      <path class="st9" d="M-417.7-216.7c-3.5,0-6.4-2.8-6.4-6.4s2.8-6.4,6.4-6.4,6.4,2.8,6.4,6.4-2.8,6.4-6.4,6.4Z"/>
      <path class="st9" d="M-431.4-195.1c-3.5,0-6.4-2.8-6.4-6.4s2.8-6.4,6.4-6.4,6.4,2.8,6.4,6.4-2.8,6.4-6.4,6.4Z"/>
      <path class="st9" d="M-445.1-173.4c-3.5,0-6.4-2.8-6.4-6.4s2.8-6.4,6.4-6.4,6.4,2.8,6.4,6.4-2.8,6.4-6.4,6.4Z"/>
      <path class="st9" d="M-458.9-151.8c-3.5,0-6.4-2.8-6.4-6.4s2.8-6.4,6.4-6.4,6.4,2.8,6.4,6.4-2.8,6.4-6.4,6.4Z"/>
      <circle class="st4" cx="-472.6" cy="-136.5" r="9.6"/>
      <circle class="st4" cx="-376.6" cy="-287" r="9.6"/>
      <path class="st29" d="M-553.6-389.6l-2.1,7.9c-.2.9,0,1.8.6,2.4l5.3,6.2c1.5,1.7.3,4.3-1.9,4.5l-8.2.5c-.9,0-1.7.5-2.2,1.3l-4.3,7c-1.2,1.9-4,1.7-4.8-.4l-3-7.6c-.3-.8-1-1.4-1.9-1.7l-8-1.9c-2.2-.5-2.8-3.3-1.1-4.7l6.4-5.2c.7-.6,1.1-1.4,1-2.3l-.7-8.2c-.2-2.2,2.3-3.7,4.2-2.5l6.9,4.4c.7.5,1.7.6,2.5.2l7.6-3.2c2.1-.9,4.2,1,3.7,3.2ZM-514.4-413.1l-2.1,7.9c-.2.9,0,1.8.6,2.4l5.3,6.2c1.5,1.7.3,4.3-1.9,4.5l-8.2.5c-.9,0-1.7.5-2.2,1.3l-4.3,7c-1.2,1.9-4,1.7-4.8-.4l-3-7.6c-.3-.8-1-1.4-1.9-1.7l-8-1.9c-2.2-.5-2.8-3.3-1.1-4.7l6.4-5.2c.7-.6,1.1-1.4,1-2.3l-.7-8.2c-.2-2.2,2.3-3.7,4.2-2.5l6.9,4.4c.7.5,1.7.6,2.5.2l7.6-3.2c2.1-.9,4.2,1,3.7,3.2ZM-475.1-436.6l-2.1,7.9c-.2.9,0,1.8.6,2.5l5.3,6.2c1.5,1.7.3,4.3-1.9,4.5l-8.2.5c-.9,0-1.7.5-2.2,1.3l-4.3,7c-1.2,1.9-4,1.7-4.8-.4l-3-7.6c-.3-.8-1-1.4-1.9-1.7l-8-1.9c-2.2-.5-2.8-3.3-1.1-4.7l6.4-5.2c.7-.6,1.1-1.4,1-2.3l-.7-8.2c-.2-2.2,2.3-3.7,4.2-2.5l6.9,4.4c.7.5,1.7.6,2.5.2l7.6-3.2c2.1-.9,4.2,1,3.7,3.2ZM-435.7-460.2l-2.1,7.9c-.2.9,0,1.8.6,2.5l5.3,6.2c1.5,1.7.3,4.3-1.9,4.5l-8.2.5c-.9,0-1.7.5-2.2,1.3l-4.3,7c-1.2,1.9-4,1.7-4.8-.4l-3-7.6c-.3-.8-1-1.4-1.9-1.7l-8-1.9c-2.2-.5-2.8-3.3-1.1-4.7l6.4-5.2c.7-.6,1.1-1.4,1-2.3l-.7-8.2c-.2-2.2,2.3-3.7,4.2-2.5l6.9,4.4c.7.5,1.7.6,2.5.2l7.6-3.2c2.1-.9,4.2,1,3.7,3.2Z"/>
      <g>
        <g class="st0">
          <image width="2292" height="2291" transform="translate(706.3 -648.8) scale(.2)" xlink:href="Ticket Logo-2.png"/>
        </g>
        <g>
          <g class="st31">
            <polygon class="st15" points="920.6 -604 751.3 -514.6 751.3 -604 920.6 -604"/>
            <polygon class="st15" points="1113.9 -604 751.3 -412.6 751.3 -514.6 920.6 -604 1113.9 -604"/>
            <polygon class="st23" points="1123.6 -604 1163.6 -528.2 751.3 -310.5 751.3 -412.6 1113.9 -604 1123.6 -604"/>
            <polygon class="st14" points="1163.6 -528.2 1202.1 -455.2 1202.1 -446.5 789.8 -228.9 751.3 -301.8 751.3 -310.5 1163.6 -528.2"/>
            <polygon class="st13" points="1202.1 -344.5 839.5 -153.1 829.8 -153.1 789.8 -228.9 1202.1 -446.5 1202.1 -344.5"/>
            <polygon class="st25" points="1202.1 -242.5 1032.8 -153.1 839.5 -153.1 1202.1 -344.5 1202.1 -242.5"/>
            <polygon class="st25" points="1032.8 -153.1 1202.1 -242.5 1202.1 -153.1 1032.8 -153.1"/>
          </g>
          <path class="st30" d="M976.7-586c55.4,0,107.5,21.6,146.7,60.8,39.2,39.2,60.8,91.3,60.8,146.7s-21.6,107.5-60.8,146.7c-39.2,39.2-91.3,60.8-146.7,60.8s-107.5-21.6-146.7-60.8c-39.2-39.2-60.8-91.3-60.8-146.7s21.6-107.5,60.8-146.7c39.2-39.2,91.3-60.8,146.7-60.8M976.7-622h0c-134.4,0-243.4,109-243.4,243.4h0c0,134.4,109,243.4,243.4,243.4h0c134.4,0,243.4-109,243.4-243.4h0c0-134.4-109-243.4-243.4-243.4h0Z"/>
        </g>
        <g class="st28">
          <g class="st21">
            <g class="st19">
              <image width="2745" height="3400" transform="translate(794.1 -622.1) scale(.2)" xlink:href="Ticket Logo-3.png"/>
            </g>
          </g>
        </g>
        <g>
          <path class="st17" d="M1085.4-334l-31.1-14.1c-1.3,2.5-3.9,4.4-7,4.4-3.7,0-7.1-2.6-7.9-6.2-.4-1.7-.2-3.4.4-4.8l-52.7-23.9c-46.2,32.5-87.6,75.8-106.3,96.5-5.3,5.9-3.4,15.3,3.9,18.6l93,42.2c1.4-2.2,4-3.7,6.9-3.6,3.7,0,7,2.9,7.6,6.6.2,1.2.1,2.5-.2,3.6l32.6,14.8c4.2,1.9,9.1,0,11-4.1l14.3-31.6c1.9-4.3,1-9.3-2.3-12.6-4-4-6.7-9.4-7.2-15.6-1.1-12.9,7.9-24.8,20.6-27.2,2.2-.4,4.3-.5,6.5-.4,4.6.3,8.9-2.4,10.8-6.6l11.3-24.9c1.9-4.2,0-9.1-4.1-11ZM1002.9-250.5c-2.9.3-5.7-2.1-5.9-5-.1-2.7,1.8-5.1,4.6-5.5,2.9-.4,5.6,1.7,5.9,4.6.4,2.9-1.7,5.6-4.7,5.9ZM993.9-232.9c-2.9.3-5.7-2.1-5.9-5-.1-2.7,1.8-5.1,4.6-5.5,2.9-.4,5.6,1.7,5.9,4.6.4,2.9-1.7,5.6-4.7,5.9ZM1016.5-274.6c-.2,2-1.5,3.7-3.4,4.4-3.7,1.4-7.5-1.5-7.1-5.5.2-2,1.5-3.7,3.4-4.4,3.7-1.4,7.5,1.5,7.1,5.5ZM1019.7-289.2c-2-.2-3.8-1.5-4.4-3.4-1.3-3.7,1.6-7.5,5.5-7.1,1.8.2,3.8,1.7,4.4,3.4,1.4,3.7-1.5,7.5-5.5,7.1ZM1029.8-308.6c-2.9.4-5.6-1.7-6-4.6-.3-2.9,2.1-5.7,5-5.9,2.7-.1,5.1,1.9,5.5,4.6.4,2.9-1.7,5.6-4.6,5.9ZM1038.8-327.9c-2.9.4-5.6-1.7-5.9-4.6-.3-2.9,2-5.7,5-5.9,2.7-.1,5.1,1.8,5.5,4.6.4,2.9-1.7,5.6-4.6,5.9Z"/>
          <path class="st1" d="M1034.4-202.3c-4.6,2-13.1-1.4-21.2-5-9.1-3.9-17.6-8.1-17.6-8.1,1-9.2-7.5-11.1-7.5-11.1-7.2-2.4-11.8,2.7-11.8,2.7l-91.6-39.8,93,42.2c1.4-2.2,4-3.7,6.9-3.6,3.7,0,7,2.9,7.6,6.6.2,1.2-.8,2.8-1.1,4l33.5,14.4c4.9,2,9.1-.8,9.8-2.2h0Z"/>
          <path class="st18" d="M884.7-263.5c7.8,3.4,15.6,6.7,23.4,10.2,7.8,3.5,15.6,6.8,23.3,10.4l23.3,10.5,23.2,10.6-.7.2c1.1-1.7,2.8-3,4.8-3.5,1.9-.6,4.1-.4,5.9.4,1.8.9,3.3,2.4,4.2,4.2.8,1.8,1,3.9.4,5.9l-.2-.5c4.6,2.2,9.3,4.3,13.9,6.5l13.8,6.6-14.1-6.1c-4.7-2-9.3-4.1-14-6.2l-.3-.2v-.4c.6-1.7.4-3.6-.4-5.2-.8-1.6-2.1-2.9-3.7-3.6-1.6-.7-3.5-.8-5.1-.3-1.7.5-3.2,1.6-4.1,3.1l-.3.4-.5-.2-23.3-10.5-23.2-10.6c-7.8-3.5-15.4-7.2-23.2-10.7-7.7-3.6-15.4-7.3-23.1-10.9Z"/>
          <path class="st20" d="M1065.2-466.4l-15.4-17.9c-3.2-3.7-8.5-5.1-13-3-2.4,1.1-5.1,1.8-7.9,2.1-13.9,1.4-26.1-8.4-27.7-22.2-.7-6.1.8-11.9,3.8-16.6,2.7-4.2,2.4-9.5-.8-13.3l-15.5-18.1c-3-3.5-8.3-3.9-11.7-.9l-92.2,79.2c-27.2,23.3-40.8,58.8-36.1,94.4l16.4,101.7c.3,1.7,2.5,2.2,3.4.7,35.1-57.1,195.9-174.3,195.9-174.3,3.5-3,3.9-8.2.9-11.7ZM910.5-392.2l-5.9,1.4c-.6.1-1.2.6-1.4,1.2l-2.2,5.6c-.6,1.5-2.7,1.7-3.6.3l-3.1-5.2c-.3-.6-.9-.9-1.6-1l-6-.4c-1.6,0-2.5-2-1.4-3.3l4-4.6c.4-.5.6-1.2.4-1.8l-1.5-5.8c-.4-1.6,1.2-3,2.7-2.3l5.6,2.4c.6.3,1.3.2,1.8-.1l5.1-3.2c1.4-.9,3.2.2,3.1,1.8l-.5,6c0,.6.2,1.3.7,1.7l4.7,3.8c1.3,1,.8,3.1-.8,3.5ZM936-414.2l-5.9,1.4c-.6.1-1.2.6-1.4,1.2l-2.2,5.6c-.6,1.5-2.7,1.7-3.6.3l-3.1-5.2c-.3-.6-.9-.9-1.6-1l-6-.4c-1.6,0-2.5-2-1.4-3.3l4-4.6c.4-.5.6-1.2.4-1.8l-1.5-5.8c-.4-1.6,1.2-3,2.7-2.3l5.6,2.4c.6.3,1.3.2,1.8-.1l5.1-3.2c1.4-.9,3.2.2,3.1,1.8l-.5,6c0,.6.2,1.3.7,1.7l4.7,3.8c1.3,1,.8,3.1-.8,3.5ZM961.5-436.2l-5.9,1.4c-.6.1-1.2.6-1.4,1.2l-2.2,5.6c-.6,1.5-2.7,1.7-3.6.3l-3.1-5.2c-.3-.6-.9-.9-1.6-1l-6-.4c-1.6,0-2.5-2-1.4-3.3l4-4.6c.4-.5.6-1.2.4-1.8l-1.5-5.8c-.4-1.6,1.2-3,2.7-2.3l5.6,2.4c.6.3,1.3.2,1.8-.1l5.1-3.2c1.4-.9,3.2.2,3.1,1.8l-.5,6c0,.6.2,1.3.7,1.7l4.7,3.8c1.3,1,.8,3.1-.8,3.5ZM987.2-458.3l-5.9,1.4c-.6.1-1.2.6-1.4,1.2l-2.2,5.6c-.6,1.5-2.7,1.7-3.6.3l-3.1-5.2c-.3-.6-.9-.9-1.6-1l-6-.4c-1.6,0-2.5-2-1.4-3.3l4-4.6c.4-.5.6-1.2.4-1.8l-1.5-5.8c-.4-1.6,1.2-3,2.7-2.3l5.6,2.4c.6.3,1.3.2,1.8-.1l5.1-3.2c1.4-.9,3.2.2,3.1,1.8l-.5,6c0,.6.2,1.3.7,1.7l4.7,3.8c1.3,1,.8,3.1-.8,3.5Z"/>
          <path class="st27" d="M864.9-281.1c.3,1.7,2.5,2.2,3.4.7,35.1-57.1,195.9-174.3,195.9-174.3,0,0-162.9,106-199.3,173.6Z"/>
          <path class="st10" d="M1064.3-454.7s-162.9,106-199.3,173.6"/>
        </g>
        <line class="st6" x1="901.7" y1="-257.1" x2="901.6" y2="-257.1"/>
      </g>
      <g>
        <g class="st0">
          <image width="2291" height="2291" transform="translate(1404 -648.8) scale(.2)" xlink:href="Ticket Logo-4.png"/>
        </g>
        <rect class="st15" x="1430.8" y="-622" width="486.9" height="486.9" rx="175.9" ry="175.9"/>
        <line class="st6" x1="1599.2" y1="-257.1" x2="1599.2" y2="-257.1"/>
        <image width="1024" height="1024" transform="translate(1384.8 -663.4) scale(.6)" xlink:href="../../../../Downloads/Ticket Logo.png"/>
      </g>
      <rect class="st24" x="14.3" y="-672" width="586.9" height="586.9" rx="250.9" ry="250.9"/>
      <line class="st11" x1="217.3" y1="-232.1" x2="217.3" y2="-232.1"/>
      <g>
        <path class="st15" d="M434.2-327.2l-35.8-16.2c-1.5,2.9-4.5,5-8.1,5.1-4.3,0-8.1-3-9.1-7.1-.4-1.9-.2-3.9.5-5.6l-60.7-27.5c-53.2,37.5-100.9,87.3-122.5,111.2-6.1,6.8-3.9,17.6,4.4,21.4l107.2,48.6c1.6-2.6,4.6-4.3,8-4.2,4.3,0,8,3.3,8.8,7.6.2,1.4.2,2.8-.2,4.1l37.5,17c4.8,2.2,10.5,0,12.7-4.8l16.5-36.4c2.2-4.9,1.1-10.7-2.7-14.5-4.6-4.7-7.7-10.9-8.3-18-1.3-14.9,9.1-28.6,23.8-31.3,2.5-.5,5-.6,7.4-.4,5.3.4,10.2-2.7,12.4-7.6l13-28.7c2.2-4.8,0-10.5-4.8-12.7ZM334.2-214.1c-.2,2.3-1.7,4.3-3.9,5.1-4.3,1.6-8.6-1.8-8.2-6.3.2-2.3,1.8-4.3,3.9-5.1,4.3-1.6,8.6,1.8,8.2,6.3ZM339.1-230.9c-3.4.4-6.6-2.4-6.8-5.8-.2-3.1,2.1-5.9,5.3-6.3,3.3-.4,6.4,1.9,6.8,5.2.4,3.4-2,6.5-5.4,6.8ZM354.8-258.7c-.2,2.3-1.8,4.3-3.9,5.1-4.3,1.6-8.6-1.8-8.2-6.3.2-2.3,1.8-4.3,3.9-5.1,4.3-1.6,8.6,1.8,8.2,6.3ZM358.5-275.5c-2.3-.2-4.3-1.8-5.1-3.9-1.6-4.3,1.8-8.6,6.3-8.2,2,.2,4.4,2,5.1,3.9,1.6,4.3-1.8,8.6-6.3,8.2ZM370.2-297.9c-3.4.5-6.5-2-6.9-5.4-.4-3.4,2.4-6.6,5.8-6.8,3.1-.1,5.9,2.1,6.3,5.3.4,3.3-1.9,6.4-5.2,6.8ZM380.5-320.2c-3.4.4-6.5-2-6.8-5.4-.4-3.4,2.4-6.6,5.8-6.8,3.1-.1,5.9,2.1,6.3,5.3.4,3.3-1.9,6.4-5.2,6.8Z"/>
        <path class="st15" d="M410.9-479.8l-17.7-20.6c-3.7-4.3-9.8-5.8-15-3.5-2.8,1.3-5.9,2.1-9.1,2.4-16,1.6-30.1-9.7-31.9-25.6-.8-7,.9-13.7,4.4-19.2,3.1-4.8,2.8-11-.9-15.3l-17.9-20.8c-3.5-4-9.5-4.5-13.5-1l-106.3,91.3c-31.3,26.9-47,67.8-41.6,108.7l18.9,117.2c.3,2,2.9,2.5,4,.8,40.4-65.8,225.7-200.8,225.7-200.8,4-3.4,4.5-9.5,1-13.5ZM232.6-394.2l-6.8,1.6c-.7.2-1.3.7-1.6,1.4l-2.6,6.5c-.7,1.8-3.1,2-4.1.3l-3.6-6c-.4-.7-1.1-1.1-1.8-1.1l-6.9-.4c-1.9-.1-2.8-2.4-1.6-3.8l4.6-5.2c.5-.6.7-1.4.5-2.1l-1.7-6.7c-.5-1.8,1.4-3.4,3.1-2.7l6.4,2.7c.7.3,1.5.2,2.1-.2l5.9-3.7c1.6-1,3.7.2,3.5,2.1l-.6,6.9c0,.7.2,1.5.8,2l5.4,4.4c1.5,1.2.9,3.6-.9,4ZM262-419.6l-6.8,1.6c-.7.2-1.3.7-1.6,1.4l-2.6,6.5c-.7,1.8-3.1,2-4.1.3l-3.6-6c-.4-.7-1.1-1.1-1.8-1.1l-7-.4c-1.9-.1-2.8-2.4-1.6-3.8l4.6-5.2c.5-.6.7-1.4.5-2.1l-1.7-6.7c-.5-1.8,1.4-3.4,3.1-2.7l6.4,2.7c.7.3,1.5.2,2.1-.2l5.9-3.7c1.6-1,3.7.2,3.5,2.1l-.6,6.9c0,.7.2,1.5.8,2l5.4,4.4c1.5,1.2.9,3.6-.9,4ZM291.5-444.9l-6.8,1.6c-.7.2-1.3.7-1.6,1.4l-2.6,6.5c-.7,1.8-3.1,2-4.1.3l-3.6-6c-.4-.7-1.1-1.1-1.8-1.1l-7-.4c-1.9-.1-2.8-2.4-1.6-3.8l4.6-5.2c.5-.6.7-1.4.5-2.1l-1.7-6.7c-.5-1.8,1.4-3.4,3.1-2.7l6.4,2.7c.7.3,1.5.2,2.1-.2l5.9-3.7c1.6-1,3.7.2,3.5,2.1l-.6,6.9c0,.7.2,1.5.8,2l5.4,4.4c1.5,1.2.9,3.6-.9,4ZM321-470.4l-6.8,1.6c-.7.2-1.3.7-1.6,1.4l-2.6,6.5c-.7,1.8-3.1,2-4.1.3l-3.6-6c-.4-.7-1.1-1.1-1.8-1.1l-7-.4c-1.9-.1-2.8-2.4-1.6-3.8l4.6-5.3c.5-.6.7-1.3.5-2.1l-1.7-6.7c-.5-1.8,1.4-3.4,3.1-2.7l6.4,2.7c.7.3,1.5.2,2.1-.2l5.9-3.7c1.6-1,3.7.2,3.5,2.1l-.6,6.9c0,.7.2,1.5.8,2l5.4,4.4c1.5,1.2.9,3.6-.9,4Z"/>
      </g>
      <g>
        <rect class="st26" x="14.3" y="14.3" width="599.5" height="599.5" rx="299.7" ry="299.7"/>
        <g>
          <path class="st16" d="M488.3,308.8l4.5.9,8.6-41.7c2-9.9-4.3-19.6-14.2-21.7l-83.8-17.3c-1.6,7.9-9.3,12.9-17.2,11.3-7.9-1.6-12.9-9.3-11.3-17.2l-205.1-42.4c-9.9-2-19.6,4.3-21.7,14.2l-36.6,177.3c-2,9.9,4.3,19.6,14.2,21.7l205.1,42.4c1.6-7.9,9.3-12.9,17.2-11.3s12.9,9.3,11.3,17.2l83.8,17.3c9.9,2,19.6-4.3,21.7-14.2l8.6-41.7-4.5-.9c-25.9-5.4-42.6-30.7-37.3-56.6h0c5.4-25.9,30.7-42.6,56.6-37.3ZM351.8,406.7c-7.4-1.5-12.2-8.8-10.7-16.3s8.8-12.3,16.3-10.7c7.5,1.5,12.2,8.8,10.7,16.3-1.5,7.4-8.8,12.3-16.3,10.7ZM360.1,366.4c-7.4-1.5-12.2-8.8-10.7-16.3,1.5-7.5,8.8-12.3,16.3-10.7,7.5,1.5,12.3,8.8,10.7,16.3-1.5,7.4-8.8,12.2-16.3,10.7ZM368.5,326c-7.4-1.5-12.2-8.8-10.7-16.3,1.5-7.4,8.8-12.2,16.3-10.7,7.5,1.5,12.3,8.8,10.7,16.3-1.5,7.5-8.8,12.3-16.3,10.7ZM376.8,285.6c-7.4-1.5-12.2-8.8-10.7-16.3,1.5-7.4,8.8-12.3,16.3-10.7,7.5,1.5,12.2,8.8,10.7,16.3-1.5,7.4-8.8,12.3-16.3,10.7Z"/>
          <path class="st15" d="M526.1,322.7l3.9,1.6,14.9-36.7c3.5-8.7-.6-18.7-9.4-22.2l-73.7-30c-2.8,6.9-10.7,10.3-17.6,7.4s-10.2-10.7-7.4-17.6l-180.4-73.5c-8.7-3.5-18.7.6-22.2,9.4l-63.5,155.9c-3.5,8.7.6,18.7,9.4,22.2l180.4,73.5c2.8-6.9,10.7-10.3,17.6-7.4,6.9,2.8,10.2,10.7,7.4,17.6l73.7,30c8.7,3.5,18.7-.6,22.2-9.4l14.9-36.7-3.9-1.6c-22.8-9.3-33.8-35.3-24.5-58.1h0c9.3-22.8,35.3-33.8,58.1-24.5ZM384.7,389.1c-6.5-2.7-9.7-10.1-7-16.7s10.1-9.7,16.7-7c6.6,2.7,9.7,10.1,7,16.7-2.7,6.5-10.1,9.7-16.7,7ZM399.2,353.6c-6.5-2.7-9.7-10.1-7-16.7,2.7-6.6,10.1-9.7,16.7-7,6.6,2.7,9.7,10.1,7,16.7-2.7,6.5-10.1,9.7-16.7,7ZM413.6,318.2c-6.5-2.7-9.7-10.1-7-16.7,2.7-6.5,10.1-9.7,16.7-7s9.7,10.1,7,16.7c-2.7,6.6-10.1,9.7-16.7,7ZM428.1,282.7c-6.5-2.7-9.7-10.1-7-16.7s10.1-9.7,16.7-7c6.6,2.7,9.7,10.1,7,16.7-2.7,6.5-10.1,9.7-16.7,7Z"/>
        </g>
      </g>
    </g>
  </g>
</svg>